<svg id="Group_3" data-name="Group 3" xmlns="http://www.w3.org/2000/svg" width="66.989" height="12.429" viewBox="0 0 66.989 12.429">
  <path id="Path_1" data-name="Path 1" d="M459.852,444.422l-2.479-.533c-.293-.067-.453-.16-.453-.453v-.906a.408.408,0,0,1,.453-.453h1.919a.408.408,0,0,1,.453.453v.746h1.866v-1.12a1.806,1.806,0,0,0-1.893-1.893h-2.826A1.805,1.805,0,0,0,455,442.156v1.626c0,1.066.88,1.693,1.92,1.919l2.479.533c.293.067.453.16.453.453V447.7a.408.408,0,0,1-.453.453h-2.08a.408.408,0,0,1-.453-.453v-.853H455v1.227a1.805,1.805,0,0,0,1.893,1.893h2.986a1.805,1.805,0,0,0,1.893-1.893v-1.733C461.772,445.275,460.892,444.649,459.852,444.422Z" transform="translate(-455 -437.539)" fill="#ccc"/>
  <path id="Path_2" data-name="Path 2" d="M596.037,443.019h2.506v7.812h1.92v-7.812h2.506v-1.786h-6.932Z" transform="translate(-588.293 -438.455)" fill="#ccc"/>
  <path id="Path_3" data-name="Path 3" d="M747.511,450.831h6.279v-1.813H749.43v-2.186h3.533v-1.813H749.43v-1.973h4.359v-1.813h-6.279Z" transform="translate(-731.449 -438.455)" fill="#ccc"/>
  <path id="Path_4" data-name="Path 4" d="M897.575,441.233H892.67v9.6h1.919v-3.386h2.986a1.805,1.805,0,0,0,1.893-1.893v-2.426A1.806,1.806,0,0,0,897.575,441.233Zm-.027,3.946a.408.408,0,0,1-.453.453h-2.506v-2.586H897.1a.408.408,0,0,1,.453.453Z" transform="translate(-868.638 -438.456)" fill="#ccc"/>
  <path id="Path_5" data-name="Path 5" d="M1045.6,440.263h-3.213a1.805,1.805,0,0,0-1.893,1.893v5.919a1.805,1.805,0,0,0,1.893,1.893h3.213a1.805,1.805,0,0,0,1.893-1.893v-5.919A1.806,1.806,0,0,0,1045.6,440.263Zm-.027,7.438a.408.408,0,0,1-.453.453h-2.253a.408.408,0,0,1-.453-.453v-5.172a.408.408,0,0,1,.453-.453h2.253a.408.408,0,0,1,.453.453Z" transform="translate(-1008.348 -437.539)" fill="#ccc"/>
  <path id="Path_6" data-name="Path 6" d="M1204.422,448.618a.408.408,0,0,1-.453.453h-2.106a.408.408,0,0,1-.453-.453v-7.385h-1.92v7.758a1.805,1.805,0,0,0,1.893,1.893h3.066a1.806,1.806,0,0,0,1.893-1.893v-7.758h-1.92Z" transform="translate(-1158.611 -438.456)" fill="#ccc"/>
  <path id="Path_7" data-name="Path 7" d="M1490.381,392.093l2.455,2.455-2.461,2.462,1.261,1.261,3.722-3.722-3.715-3.715Z" transform="translate(-1433.524 -390.822)" fill="#ccc"/>
  <path id="Path_8" data-name="Path 8" d="M1585.521,390.651l-1.261,1.261,2.455,2.455-2.461,2.462,1.261,1.261,3.722-3.722Z" transform="translate(-1522.248 -390.651)" fill="#ccc"/>
  <path id="Path_9" data-name="Path 9" d="M1360.241,442.2h-4.426v9.6h1.92v-7.812h4.071V442.2Z" transform="translate(-1306.353 -439.371)" fill="#ccc"/>
</svg>
