<svg xmlns="http://www.w3.org/2000/svg" width="20" height="20" viewBox="0 0 20 20"><defs><style>.a{fill:#ccc;}</style></defs><path class="a" d="M18.571,39.857H12.143V33.429A1.429,1.429,0,0,0,10.714,32H9.286a1.429,1.429,0,0,0-1.429,1.429v6.429H1.429A1.429,1.429,0,0,0,0,41.286v1.429a1.429,1.429,0,0,0,1.429,1.429H7.857v6.429A1.429,1.429,0,0,0,9.286,52h1.429a1.429,1.429,0,0,0,1.429-1.429V44.143h6.429A1.429,1.429,0,0,0,20,42.714V41.286A1.429,1.429,0,0,0,18.571,39.857Z" transform="translate(0 -32)"/></svg>